<svg width="166" height="81" viewBox="0 0 166 81" fill="none" xmlns="http://www.w3.org/2000/svg">
<g clip-path="url(#clip0_383_139)">
<path d="M78.6663 0.470269C78.6663 0.470269 83.1523 0.0700679 84.8462 8.4465C84.8462 8.4465 85.6466 17.2231 85.3441 20.2154C85.3441 20.2154 89.5324 25.3995 90.9284 26.2976C92.3245 27.1958 90.9284 28.3917 90.9284 28.3917L88.0386 30.5836C88.0005 31.1083 88.0691 31.6353 88.2402 32.1328C88.4114 32.6302 88.6816 33.0879 89.0344 33.4781C90.2304 34.7718 88.9367 35.7723 88.4388 36.0701C88.0645 36.3208 87.7277 36.6231 87.4383 36.9683C87.4383 36.9683 87.7407 38.5644 88.3364 38.7599C88.932 38.9553 88.7366 40.5562 87.5406 41.1565C87.5406 41.1565 85.3441 42.1523 85.7443 46.5407C85.7443 46.5407 86.7402 53.0231 81.4584 51.9249" stroke="#C1272D" stroke-width="0.930715" stroke-miterlimit="10"/>
<path d="M75.3716 38.9602C71.6232 38.2014 67.9473 37.1208 64.3845 35.7306C62.4533 34.9627 60.4522 34.3066 58.6559 33.2456C57.703 32.7078 56.8421 32.0213 56.1058 31.212C55.1751 30.1323 55.5287 29.7647 56.2361 28.6106C56.799 27.6451 57.1299 26.5619 57.2026 25.4467C57.2752 24.3314 57.0878 23.2144 56.6549 22.184C55.7242 20.1039 53.1322 18.3681 51.28 20.2528" stroke="#ED1C24" stroke-width="0.930715" stroke-miterlimit="10"/>
<path d="M52.3876 29.7687C53.6263 29.7687 54.6306 27.4914 54.6306 24.6823C54.6306 21.8732 53.6263 19.5959 52.3876 19.5959C51.1488 19.5959 50.1445 21.8732 50.1445 24.6823C50.1445 27.4914 51.1488 29.7687 52.3876 29.7687Z" fill="#ED1C24" stroke="#ED1C24" stroke-width="0.930715" stroke-miterlimit="10"/>
<path d="M82.1168 40.2468C82.2585 39.3064 80.7067 38.293 78.6507 37.9832C76.5947 37.6733 74.8131 38.1844 74.6714 39.1247C74.5297 40.065 76.0815 41.0785 78.1375 41.3883C80.1935 41.6982 81.9751 41.1871 82.1168 40.2468Z" fill="#ED1C24" stroke="#ED1C24" stroke-width="0.930715" stroke-miterlimit="10"/>
<path d="M2.04383 66.8755H3.42391V68.7421C3.9071 68.0537 4.40354 67.5507 4.91321 67.233C5.61483 66.8093 6.35287 66.5975 7.1273 66.5975C7.65021 66.5975 8.14664 66.7001 8.6166 66.9053C9.08656 67.1105 9.47047 67.3852 9.76833 67.7294C10.0662 68.067 10.3243 68.5535 10.5428 69.1889C11.0061 68.3417 11.5853 67.6996 12.2803 67.2627C12.9753 66.8193 13.7232 66.5975 14.5242 66.5975C15.2721 66.5975 15.9307 66.7862 16.5 67.1635C17.0758 67.5408 17.5028 68.067 17.7808 68.7421C18.0588 69.4173 18.1978 70.43 18.1978 71.7803V77.6779H16.778V71.7803C16.778 70.6219 16.6952 69.8277 16.5297 69.3974C16.3643 68.9606 16.0796 68.6097 15.6759 68.345C15.2787 68.0802 14.8022 67.9478 14.2462 67.9478C13.571 67.9478 12.9521 68.1464 12.3895 68.5435C11.8335 68.9407 11.4264 69.4702 11.1683 70.1321C10.9101 70.794 10.781 71.8994 10.781 73.4483V77.6779H9.40097V72.1477C9.40097 70.8437 9.31823 69.96 9.15275 69.4967C8.99389 69.0267 8.71258 68.6528 8.30881 68.3748C7.90505 68.0901 7.42516 67.9478 6.86916 67.9478C6.2271 67.9478 5.62476 68.1431 5.06214 68.5336C4.50613 68.9175 4.09244 69.4371 3.82106 70.0924C3.55629 70.7477 3.42391 71.7505 3.42391 73.1008V77.6779H2.04383V66.8755ZM19.975 66.8755H21.4444L25.1578 75.1958L28.7619 66.8755H30.2412L23.7975 81.6295H22.3281L24.4131 76.8638L19.975 66.8755Z" fill="#000"/>
<path d="M37.4693 68.057L36.5757 68.9804C35.8344 68.2589 35.1096 67.8982 34.4013 67.8982C33.9512 67.8982 33.564 68.0471 33.2397 68.345C32.922 68.6428 32.7631 68.9903 32.7631 69.3875C32.7631 69.7383 32.8955 70.0726 33.1603 70.3903C33.425 70.7146 33.981 71.0952 34.8283 71.5321C35.8609 72.0682 36.5625 72.5845 36.9331 73.0809C37.2972 73.584 37.4792 74.1499 37.4792 74.7787C37.4792 75.6657 37.1681 76.417 36.5459 77.0326C35.9237 77.6481 35.146 77.9559 34.2127 77.9559C33.5905 77.9559 32.9948 77.8202 32.4255 77.5488C31.8629 77.2775 31.3963 76.9035 31.0256 76.4269L31.8993 75.434C32.6076 76.235 33.3588 76.6354 34.1531 76.6354C34.7091 76.6354 35.1824 76.4567 35.5729 76.0993C35.9634 75.7418 36.1587 75.3215 36.1587 74.8383C36.1587 74.4412 36.0296 74.0871 35.7715 73.776C35.5134 73.4715 34.9309 73.0876 34.0241 72.6242C33.051 72.1212 32.3891 71.6247 32.0383 71.1349C31.6875 70.6451 31.5121 70.0858 31.5121 69.457C31.5121 68.6362 31.7901 67.9544 32.3461 67.4117C32.9087 66.8689 33.617 66.5975 34.4708 66.5975C35.4637 66.5975 36.4632 67.084 37.4693 68.057ZM49.0362 74.0937L50.2078 74.7092C49.8239 75.4638 49.3804 76.0728 48.8773 76.5361C48.3743 76.9995 47.8083 77.3536 47.1795 77.5985C46.5507 77.8368 45.8392 77.9559 45.0449 77.9559C43.2842 77.9559 41.9074 77.3801 40.9145 76.2283C39.9217 75.07 39.4252 73.7627 39.4252 72.3065C39.4252 70.9364 39.8456 69.7151 40.6862 68.6428C41.7519 67.2793 43.1783 66.5975 44.9654 66.5975C46.8055 66.5975 48.275 67.2958 49.3738 68.6925C50.1548 69.6787 50.552 70.9099 50.5652 72.3859H40.855C40.8814 73.6436 41.2819 74.6762 42.0563 75.4837C42.8308 76.2846 43.7872 76.6851 44.9257 76.6851C45.4751 76.6851 46.0079 76.5891 46.5242 76.3971C47.0471 76.2052 47.4906 75.9503 47.8547 75.6326C48.2187 75.3149 48.6126 74.8019 49.0362 74.0937ZM49.0362 71.1846C48.8509 70.4432 48.5795 69.8508 48.222 69.4073C47.8712 68.9639 47.4046 68.6064 46.8221 68.335C46.2396 68.0637 45.6273 67.928 44.9853 67.928C43.9262 67.928 43.0161 68.2689 42.2549 68.9506C41.6989 69.4471 41.2786 70.1917 40.994 71.1846H49.0362ZM52.6403 66.8755H54.0601V68.4542C54.4837 67.832 54.9305 67.3687 55.4005 67.0642C55.8704 66.7531 56.3602 66.5975 56.8699 66.5975C57.2538 66.5975 57.6642 66.72 58.1011 66.9649L57.3763 68.1365C57.085 68.0107 56.8401 67.9478 56.6415 67.9478C56.1782 67.9478 55.7314 68.1398 55.3012 68.5237C54.8709 68.901 54.5433 69.4901 54.3182 70.291C54.1461 70.9066 54.0601 72.151 54.0601 74.0242V77.6779H52.6403V66.8755ZM58.2599 66.8755H59.7393L63.3533 74.739L66.9376 66.8755H68.4269L63.4824 77.6779H63.2342L58.2599 66.8755ZM71.048 62.4275C71.3658 62.4275 71.6371 62.54 71.8622 62.7651C72.0872 62.9901 72.1998 63.2615 72.1998 63.5792C72.1998 63.8903 72.0872 64.1584 71.8622 64.3834C71.6371 64.6085 71.3658 64.721 71.048 64.721C70.7369 64.721 70.4689 64.6085 70.2438 64.3834C70.0188 64.1584 69.9062 63.8903 69.9062 63.5792C69.9062 63.2615 70.0188 62.9901 70.2438 62.7651C70.4689 62.54 70.7369 62.4275 71.048 62.4275ZM70.353 66.8755H71.753V77.6779H70.353V66.8755ZM85.117 69.1194L84.0149 69.8045C83.0617 68.5402 81.7611 67.9081 80.1129 67.9081C78.7957 67.9081 77.7002 68.3317 76.8265 69.179C75.9594 70.0262 75.5259 71.0555 75.5259 72.2668C75.5259 73.0545 75.7244 73.7958 76.1216 74.4908C76.5253 75.1858 77.0747 75.7253 77.7697 76.1092C78.4714 76.4931 79.2557 76.6851 80.1228 76.6851C81.7114 76.6851 83.0088 76.0529 84.0149 74.7887L85.117 75.5135C84.6007 76.2879 83.9057 76.8902 83.0319 77.3205C82.1648 77.7441 81.1753 77.9559 80.0633 77.9559C78.3555 77.9559 76.939 77.4132 75.8138 76.3276C74.6885 75.2421 74.1259 73.9216 74.1259 72.3661C74.1259 71.3203 74.3874 70.3506 74.9103 69.457C75.4398 68.5568 76.1646 67.8552 77.0847 67.3521C78.0047 66.8491 79.034 66.5975 80.1725 66.5975C80.8873 66.5975 81.5757 66.7067 82.2376 66.9252C82.9062 67.1436 83.4721 67.4282 83.9354 67.779C84.3988 68.1299 84.7926 68.5766 85.117 69.1194ZM96.8923 74.0937L98.0639 74.7092C97.68 75.4638 97.2365 76.0728 96.7335 76.5361C96.2304 76.9995 95.6645 77.3536 95.0357 77.5985C94.4069 77.8368 93.6953 77.9559 92.901 77.9559C91.1403 77.9559 89.7636 77.3801 88.7707 76.2283C87.7778 75.07 87.2814 73.7627 87.2814 72.3065C87.2814 70.9364 87.7017 69.7151 88.5423 68.6428C89.608 67.2793 91.0344 66.5975 92.8216 66.5975C94.6617 66.5975 96.1311 67.2958 97.2299 68.6925C98.011 69.6787 98.4081 70.9099 98.4214 72.3859H88.7111C88.7376 73.6436 89.1381 74.6762 89.9125 75.4837C90.6869 76.2846 91.6434 76.6851 92.7819 76.6851C93.3313 76.6851 93.8641 76.5891 94.3804 76.3971C94.9033 76.2052 95.3468 75.9503 95.7108 75.6326C96.0749 75.3149 96.4687 74.8019 96.8923 74.0937ZM96.8923 71.1846C96.707 70.4432 96.4356 69.8508 96.0782 69.4073C95.7274 68.9639 95.2607 68.6064 94.6783 68.335C94.0958 68.0637 93.4835 67.928 92.8414 67.928C91.7824 67.928 90.8723 68.2689 90.1111 68.9506C89.5551 69.4471 89.1347 70.1917 88.8501 71.1846H96.8923ZM111.785 66.8755V77.6779H110.415V75.8213C109.833 76.5295 109.177 77.0623 108.449 77.4198C107.728 77.7772 106.937 77.9559 106.076 77.9559C104.547 77.9559 103.24 77.4032 102.155 76.2978C101.076 75.1858 100.536 73.8355 100.536 72.2469C100.536 70.6914 101.082 69.361 102.174 68.2556C103.267 67.1502 104.58 66.5975 106.116 66.5975C107.003 66.5975 107.804 66.7862 108.519 67.1635C109.24 67.5408 109.872 68.1067 110.415 68.8613V66.8755H111.785ZM106.225 67.9379C105.451 67.9379 104.736 68.1299 104.081 68.5138C103.425 68.8911 102.902 69.4239 102.512 70.1123C102.128 70.8007 101.936 71.5288 101.936 72.2966C101.936 73.0578 102.131 73.7859 102.522 74.4809C102.912 75.1759 103.435 75.7187 104.091 76.1092C104.753 76.4931 105.461 76.6851 106.215 76.6851C106.977 76.6851 107.698 76.4931 108.38 76.1092C109.062 75.7253 109.584 75.2057 109.949 74.5504C110.319 73.8951 110.505 73.1571 110.505 72.3363C110.505 71.0853 110.091 70.0395 109.263 69.1988C108.443 68.3582 107.43 67.9379 106.225 67.9379ZM124.226 66.8755H125.626V75.4837C125.626 76.9995 125.494 78.1082 125.229 78.8098C124.865 79.8027 124.233 80.5672 123.332 81.1033C122.432 81.6395 121.35 81.9075 120.086 81.9075C119.159 81.9075 118.325 81.7751 117.584 81.5104C116.849 81.2522 116.25 80.9014 115.787 80.4579C115.323 80.0211 114.896 79.379 114.506 78.5318H116.015C116.425 79.2466 116.955 79.7762 117.604 80.1204C118.252 80.4646 119.056 80.6367 120.016 80.6367C120.963 80.6367 121.76 80.4579 122.409 80.1005C123.064 79.7497 123.531 79.3062 123.809 78.7701C124.087 78.2339 124.226 77.3701 124.226 76.1787V75.6227C123.703 76.2846 123.064 76.7943 122.31 77.1517C121.555 77.5025 120.754 77.6779 119.907 77.6779C118.914 77.6779 117.981 77.433 117.107 76.9432C116.233 76.4468 115.558 75.7815 115.082 74.9475C114.605 74.1135 114.367 73.1968 114.367 72.1973C114.367 71.1978 114.615 70.2678 115.111 69.4073C115.608 68.5402 116.293 67.8552 117.167 67.3521C118.047 66.8491 118.974 66.5975 119.947 66.5975C120.754 66.5975 121.505 66.7663 122.201 67.1039C122.902 67.4348 123.577 67.9842 124.226 68.752V66.8755ZM120.125 67.9379C119.338 67.9379 118.606 68.1299 117.931 68.5138C117.256 68.8911 116.727 69.4173 116.343 70.0924C115.959 70.7609 115.767 71.4857 115.767 72.2668C115.767 73.4516 116.164 74.4312 116.958 75.2057C117.752 75.9801 118.782 76.3673 120.046 76.3673C121.323 76.3673 122.349 75.9834 123.124 75.2156C123.905 74.4478 124.295 73.4384 124.295 72.1874C124.295 71.3732 124.117 70.6484 123.759 70.013C123.402 69.3709 122.896 68.8646 122.24 68.4939C121.585 68.1232 120.88 67.9379 120.125 67.9379ZM137.699 74.0937L138.871 74.7092C138.487 75.4638 138.043 76.0728 137.54 76.5361C137.037 76.9995 136.471 77.3536 135.842 77.5985C135.214 77.8368 134.502 77.9559 133.708 77.9559C131.947 77.9559 130.57 77.3801 129.578 76.2283C128.585 75.07 128.088 73.7627 128.088 72.3065C128.088 70.9364 128.509 69.7151 129.349 68.6428C130.415 67.2793 131.841 66.5975 133.628 66.5975C135.469 66.5975 136.938 67.2958 138.037 68.6925C138.818 69.6787 139.215 70.9099 139.228 72.3859H129.518C129.544 73.6436 129.945 74.6762 130.719 75.4837C131.494 76.2846 132.45 76.6851 133.589 76.6851C134.138 76.6851 134.671 76.5891 135.187 76.3971C135.71 76.2052 136.154 75.9503 136.518 75.6326C136.882 75.3149 137.276 74.8019 137.699 74.0937ZM137.699 71.1846C137.514 70.4432 137.242 69.8508 136.885 69.4073C136.534 68.9639 136.068 68.6064 135.485 68.335C134.903 68.0637 134.29 67.928 133.648 67.928C132.589 67.928 131.679 68.2689 130.918 68.9506C130.362 69.4471 129.942 70.1917 129.657 71.1846H137.699ZM141.829 66.8755H143.219V68.8116C143.775 68.0703 144.391 67.5176 145.066 67.1535C145.741 66.7829 146.476 66.5975 147.27 66.5975C148.078 66.5975 148.793 66.8027 149.415 67.2131C150.044 67.6235 150.507 68.1762 150.805 68.8712C151.103 69.5662 151.252 70.6484 151.252 72.1179V77.6779H149.872V72.5249C149.872 71.2805 149.819 70.4499 149.713 70.0328C149.547 69.318 149.236 68.7818 148.78 68.4244C148.323 68.0604 147.727 67.8783 146.992 67.8783C146.152 67.8783 145.397 68.1563 144.729 68.7123C144.067 69.2683 143.63 69.9567 143.418 70.7775C143.286 71.3136 143.219 72.2933 143.219 73.7164V77.6779H141.829V66.8755ZM155.452 62.8644H156.852V66.8755H159.056V68.067H156.852V77.6779H155.452V68.067H153.555V66.8755H155.452V62.8644Z" fill="#ED1C24"/>
<path d="M79.1548 20.5646C79.0485 20.5615 78.9426 20.5794 78.8431 20.6172C78.7437 20.6551 78.6527 20.7122 78.5754 20.7852C78.498 20.8583 78.4358 20.9458 78.3923 21.0429C78.3488 21.14 78.3248 21.2447 78.3218 21.3511C78.3224 21.4107 78.3302 21.4701 78.3451 21.5279L77.8006 21.835H73.2541V20.6251H74.5152C74.5748 20.7864 74.6828 20.9253 74.8244 21.0228C74.9661 21.1203 75.1344 21.1716 75.3063 21.1696C75.5149 21.1696 75.7149 21.0867 75.8624 20.9392C76.0099 20.7917 76.0928 20.5917 76.0928 20.3831C76.0928 20.1745 76.0099 19.9745 75.8624 19.827C75.7149 19.6795 75.5149 19.5967 75.3063 19.5967C75.1344 19.5947 74.9661 19.6459 74.8244 19.7434C74.6828 19.8409 74.5748 19.9798 74.5152 20.1411H73.2541V18.9312H76.5674C76.627 19.0925 76.735 19.2314 76.8766 19.3289C77.0183 19.4264 77.1866 19.4777 77.3586 19.4757C77.5671 19.4757 77.7672 19.3928 77.9147 19.2453C78.0622 19.0978 78.145 18.8978 78.145 18.6892C78.145 18.4806 78.0622 18.2806 77.9147 18.1331C77.7672 17.9856 77.5671 17.9028 77.3586 17.9028C77.1866 17.9008 77.0183 17.952 76.8766 18.0495C76.735 18.147 76.627 18.2859 76.5674 18.4472H73.2541V17.2373H77.8006L78.3451 17.5444C78.3302 17.6022 78.3224 17.6616 78.3218 17.7213C78.3116 17.8889 78.352 18.0558 78.4377 18.2003C78.5235 18.3447 78.6508 18.46 78.8029 18.5312C78.9551 18.6024 79.1251 18.6261 79.291 18.5995C79.4568 18.5728 79.6108 18.4968 79.733 18.3815C79.8551 18.2662 79.9398 18.1168 79.9759 17.9528C80.0121 17.7887 79.9981 17.6176 79.9358 17.4616C79.8734 17.3056 79.7656 17.172 79.6264 17.078C79.4871 16.9841 79.3228 16.9342 79.1548 16.9348C78.956 16.934 78.7633 17.0032 78.6104 17.1303L78.0054 16.7859C77.9648 16.7659 77.9204 16.7547 77.8751 16.7533H73.2541V15.7854H77.1026C77.1404 15.786 77.1778 15.7785 77.2124 15.7632C77.2469 15.7479 77.2777 15.7253 77.3027 15.697L78.2334 14.622C78.2907 14.6268 78.3483 14.6268 78.4056 14.622C78.5586 14.612 78.7053 14.5575 78.8277 14.4653C78.9501 14.373 79.0429 14.247 79.0947 14.1027C79.1465 13.9584 79.1549 13.8022 79.119 13.6531C79.0831 13.5041 79.0045 13.3688 78.8927 13.2639C78.781 13.1589 78.641 13.0889 78.49 13.0625C78.339 13.0361 78.1836 13.0544 78.0428 13.1151C77.9021 13.1759 77.7821 13.2764 77.6978 13.4044C77.6134 13.5324 77.5683 13.6822 77.568 13.8355C77.5688 14.0328 77.6474 14.2217 77.7867 14.3614L77.0002 15.2921H73.2774V14.5662H75.0411C75.0879 14.5671 75.134 14.555 75.1743 14.5312C75.2146 14.5073 75.2474 14.4727 75.2691 14.4312L75.5716 13.8635C75.6499 13.8879 75.7315 13.9004 75.8136 13.9007C75.9665 13.8907 76.1133 13.8362 76.2357 13.744C76.3581 13.6517 76.4509 13.5257 76.5027 13.3814C76.5544 13.2371 76.5629 13.0809 76.527 12.9318C76.4911 12.7828 76.4124 12.6475 76.3007 12.5426C76.1889 12.4376 76.0489 12.3676 75.8979 12.3412C75.7469 12.3148 75.5915 12.3331 75.4508 12.3938C75.31 12.4545 75.1901 12.5551 75.1057 12.6831C75.0214 12.8111 74.9762 12.9609 74.9759 13.1142C74.978 13.2846 75.0389 13.4489 75.1481 13.5796L74.8829 14.0775H73.2448V13.8355C73.2302 13.3731 73.033 12.9352 72.6964 12.6177C72.3597 12.3003 71.911 12.1291 71.4485 12.1416C71.1137 12.1375 70.7844 12.2267 70.4975 12.3993C70.2106 12.5719 69.9775 12.8211 69.8244 13.1189H69.7918H69.6522C69.19 13.1076 68.7421 13.2792 68.4057 13.5964C68.0693 13.9136 67.8718 14.3507 67.8559 14.8128C67.8559 14.8361 67.8559 14.8593 67.8559 14.8826C67.6877 14.836 67.514 14.8125 67.3394 14.8128C66.8769 14.8003 66.4282 14.9714 66.0916 15.2889C65.7549 15.6063 65.5577 16.0442 65.5431 16.5067C65.5448 16.7431 65.5971 16.9764 65.6967 17.1908C65.3386 17.4105 65.0429 17.7184 64.8378 18.085C64.6326 18.4517 64.5249 18.8648 64.5249 19.2849C64.5249 19.705 64.6326 20.1181 64.8378 20.4847C65.0429 20.8513 65.3386 21.1592 65.6967 21.379C65.5976 21.5935 65.5452 21.8267 65.5431 22.0631C65.5577 22.5255 65.7549 22.9634 66.0916 23.2809C66.4282 23.5983 66.8769 23.7695 67.3394 23.757C67.514 23.7573 67.6877 23.7338 67.8559 23.6872C67.8559 23.7104 67.8559 23.7337 67.8559 23.757C67.8718 24.219 68.0693 24.6562 68.4057 24.9734C68.7421 25.2906 69.19 25.4622 69.6522 25.4509H69.8244C69.9775 25.7486 70.2106 25.9978 70.4975 26.1704C70.7844 26.3431 71.1137 26.4323 71.4485 26.4281C71.8691 26.4371 72.2791 26.2959 72.6049 26.0297C72.9307 25.7636 73.151 25.3901 73.2262 24.9762H74.8829L75.1481 25.4741C75.0389 25.6048 74.978 25.7692 74.9759 25.9395C74.9657 26.107 75.0059 26.2737 75.0915 26.418C75.1771 26.5623 75.3041 26.6776 75.4559 26.7489C75.6078 26.8202 75.7776 26.8443 75.9433 26.818C76.109 26.7917 76.263 26.7162 76.3854 26.6013C76.5077 26.4865 76.5927 26.3376 76.6294 26.1738C76.6661 26.0101 76.6527 25.8391 76.5911 25.6831C76.5295 25.527 76.4224 25.3931 76.2838 25.2986C76.1452 25.204 75.9814 25.1533 75.8136 25.153C75.7315 25.153 75.6499 25.1655 75.5716 25.1903L75.2691 24.6225C75.2474 24.581 75.2146 24.5464 75.1743 24.5226C75.134 24.4987 75.0879 24.4866 75.0411 24.4876H73.2448V23.7709H76.9677L77.7541 24.7016C77.6157 24.8419 77.5372 25.0305 77.5354 25.2275C77.5251 25.395 77.5654 25.5617 77.651 25.706C77.7366 25.8503 77.8635 25.9656 78.0154 26.0369C78.1673 26.1082 78.3371 26.1323 78.5028 26.106C78.6685 26.0797 78.8225 26.0042 78.9448 25.8894C79.0671 25.7745 79.1522 25.6256 79.1888 25.4618C79.2255 25.2981 79.2122 25.1271 79.1506 24.9711C79.089 24.815 78.9819 24.6811 78.8433 24.5866C78.7046 24.492 78.5408 24.4414 78.373 24.441C78.3157 24.4362 78.2581 24.4362 78.2009 24.441L77.2701 23.3661C77.2452 23.3377 77.2144 23.3151 77.1798 23.2998C77.1453 23.2846 77.1078 23.277 77.07 23.2776H73.2215V22.3097H77.8425C77.8878 22.3083 77.9322 22.2972 77.9728 22.2771L78.5778 21.9328C78.7307 22.0598 78.9234 22.129 79.1223 22.1282C79.3308 22.1282 79.5309 22.0454 79.6784 21.8979C79.8258 21.7504 79.9087 21.5503 79.9087 21.3418C79.9087 21.1332 79.8258 20.9331 79.6784 20.7857C79.5309 20.6382 79.3308 20.5553 79.1223 20.5553L79.1548 20.5646ZM75.3063 20.0993C75.3652 20.1029 75.4218 20.1237 75.469 20.159C75.5162 20.1944 75.5521 20.2428 75.5722 20.2983C75.5922 20.3538 75.5956 20.4139 75.5819 20.4713C75.5682 20.5287 75.5381 20.5809 75.4951 20.6213C75.4522 20.6618 75.3983 20.6888 75.3402 20.6991C75.2821 20.7093 75.2223 20.7023 75.1681 20.679C75.1139 20.6556 75.0677 20.617 75.0352 20.5677C75.0027 20.5184 74.9853 20.4607 74.9852 20.4017C74.9839 20.3592 74.9914 20.3169 75.007 20.2773C75.0227 20.2378 75.0463 20.2019 75.0764 20.1718C75.1065 20.1417 75.1424 20.1181 75.1819 20.1025C75.2215 20.0868 75.2638 20.0794 75.3063 20.0806V20.0993ZM77.3586 18.4054C77.4388 18.4054 77.5157 18.4372 77.5724 18.4939C77.6292 18.5507 77.661 18.6276 77.661 18.7078C77.661 18.7881 77.6292 18.865 77.5724 18.9217C77.5157 18.9784 77.4388 19.0103 77.3586 19.0103C77.2783 19.0103 77.2014 18.9784 77.1447 18.9217C77.0879 18.865 77.0561 18.7881 77.0561 18.7078C77.0561 18.6276 77.0879 18.5507 77.1447 18.4939C77.2014 18.4372 77.2783 18.4054 77.3586 18.4054ZM79.1548 17.4374C79.2137 17.441 79.2703 17.4618 79.3175 17.4972C79.3647 17.5325 79.4006 17.581 79.4207 17.6364C79.4407 17.6919 79.4441 17.7521 79.4304 17.8095C79.4167 17.8669 79.3866 17.919 79.3436 17.9595C79.3007 18 79.2468 18.027 79.1887 18.0372C79.1306 18.0475 79.0708 18.0405 79.0166 18.0171C78.9624 17.9938 78.9162 17.9551 78.8837 17.9058C78.8512 17.8566 78.8338 17.7989 78.8337 17.7399C78.8324 17.6974 78.8399 17.655 78.8555 17.6155C78.8712 17.576 78.8948 17.54 78.9249 17.51C78.955 17.4799 78.9909 17.4563 79.0304 17.4406C79.07 17.4249 79.1123 17.4175 79.1548 17.4188V17.4374ZM78.387 13.5656C78.4459 13.5693 78.5024 13.59 78.5497 13.6254C78.5969 13.6608 78.6328 13.7092 78.6528 13.7647C78.6729 13.8202 78.6763 13.8803 78.6626 13.9377C78.6489 13.9951 78.6187 14.0473 78.5758 14.0877C78.5328 14.1282 78.479 14.1552 78.4209 14.1654C78.3628 14.1757 78.3029 14.1687 78.2487 14.1454C78.1945 14.122 78.1483 14.0833 78.1159 14.0341C78.0834 13.9848 78.066 13.9271 78.0659 13.8681C78.0646 13.8256 78.072 13.7833 78.0877 13.7437C78.1034 13.7042 78.127 13.6683 78.1571 13.6382C78.1871 13.6081 78.2231 13.5845 78.2626 13.5688C78.3021 13.5531 78.3445 13.5457 78.387 13.547V13.5656ZM75.8182 12.835C75.8771 12.8387 75.9337 12.8594 75.9809 12.8948C76.0281 12.9302 76.064 12.9786 76.0841 13.0341C76.1041 13.0896 76.1075 13.1497 76.0938 13.2071C76.0801 13.2645 76.05 13.3166 76.007 13.3571C75.9641 13.3976 75.9102 13.4246 75.8521 13.4348C75.794 13.4451 75.7342 13.4381 75.68 13.4147C75.6258 13.3914 75.5796 13.3527 75.5471 13.3035C75.5146 13.2542 75.4972 13.1965 75.4971 13.1375C75.4983 13.0965 75.5076 13.0562 75.5244 13.0189C75.5412 12.9815 75.5652 12.9478 75.595 12.9197C75.6248 12.8916 75.6599 12.8697 75.6982 12.8552C75.7365 12.8406 75.7773 12.8338 75.8182 12.835ZM76.144 25.9628C76.1486 26.0282 76.1335 26.0935 76.1004 26.1501C76.0674 26.2068 76.018 26.2521 75.9588 26.2803C75.8995 26.3084 75.8332 26.318 75.7684 26.3078C75.7036 26.2976 75.6434 26.2681 75.5957 26.2231C75.5479 26.1781 75.5149 26.1198 75.5009 26.0558C75.4868 25.9917 75.4924 25.9249 75.517 25.8641C75.5415 25.8033 75.5839 25.7513 75.6384 25.7149C75.693 25.6785 75.7573 25.6595 75.8229 25.6603C75.9033 25.6577 75.9816 25.6862 76.0414 25.74C76.1013 25.7937 76.138 25.8686 76.144 25.9488V25.9628ZM78.7081 25.2368C78.7081 25.322 78.6743 25.4036 78.614 25.4639C78.5538 25.5241 78.4722 25.5579 78.387 25.5579C78.3018 25.5579 78.2202 25.5241 78.1599 25.4639C78.0997 25.4036 78.0659 25.322 78.0659 25.2368C78.0666 25.176 78.0857 25.1169 78.1206 25.067C78.1554 25.0172 78.2045 24.9791 78.2614 24.9576C78.3008 24.9401 78.3439 24.9321 78.387 24.9343C78.4674 24.9317 78.5457 24.9603 78.6055 25.014C78.6654 25.0678 78.7021 25.1426 78.7081 25.2228V25.2368ZM71.4578 25.9628C71.2354 25.9638 71.0165 25.9079 70.8218 25.8004C70.6271 25.6928 70.4632 25.5373 70.3456 25.3485C70.6674 25.2309 70.9459 25.0185 71.1445 24.7394C71.343 24.4602 71.4523 24.1274 71.4578 23.7849C71.4572 23.7521 71.4501 23.7197 71.4368 23.6897C71.4236 23.6597 71.4045 23.6327 71.3807 23.6101C71.3568 23.5876 71.3287 23.5701 71.298 23.5585C71.2673 23.547 71.2346 23.5417 71.2019 23.5429C71.136 23.5416 71.0723 23.5663 71.0244 23.6115C70.9765 23.6568 70.9483 23.719 70.9459 23.7849C70.9326 24.0647 70.8237 24.3315 70.6374 24.5407C70.451 24.7499 70.1986 24.8888 69.9221 24.9343H69.8849C69.8136 24.9391 69.7421 24.9391 69.6708 24.9343C69.5061 24.9405 69.3416 24.9141 69.1871 24.8566C69.0325 24.7991 68.8909 24.7116 68.7702 24.5992C68.6496 24.4868 68.5523 24.3516 68.4841 24.2015C68.4158 24.0513 68.3779 23.8892 68.3725 23.7244C68.3719 23.5845 68.3971 23.4456 68.447 23.3149C68.4649 23.2662 68.4664 23.2131 68.4513 23.1635C68.4362 23.1139 68.4052 23.0706 68.3632 23.0403C68.3179 23.0118 68.2655 22.9967 68.2119 22.9967C68.1584 22.9967 68.106 23.0118 68.0607 23.0403C67.8479 23.1798 67.5984 23.2527 67.3441 23.2497C67.014 23.2585 66.694 23.1361 66.4541 22.9092C66.2142 22.6824 66.0741 22.3698 66.0643 22.0398C66.0638 21.811 66.1319 21.5873 66.2598 21.3976C66.2777 21.3705 66.2895 21.3398 66.2943 21.3076C66.2991 21.2755 66.2969 21.2426 66.2877 21.2115C66.2796 21.1787 66.2646 21.1481 66.2437 21.1216C66.2229 21.0952 66.1966 21.0734 66.1667 21.0579C65.8284 20.894 65.5431 20.6382 65.3434 20.3197C65.1438 20.0012 65.0379 19.6329 65.0379 19.257C65.0379 18.881 65.1438 18.5127 65.3434 18.1942C65.5431 17.8757 65.8284 17.6199 66.1667 17.456C66.1966 17.4405 66.2229 17.4188 66.2437 17.3923C66.2646 17.3658 66.2796 17.3352 66.2877 17.3025C66.2969 17.2713 66.2991 17.2384 66.2943 17.2063C66.2895 17.1741 66.2777 17.1434 66.2598 17.1163C66.1319 16.9266 66.0638 16.7029 66.0643 16.4741C66.0741 16.1441 66.2142 15.8315 66.4541 15.6047C66.694 15.3779 67.014 15.2554 67.3441 15.2642C67.5984 15.2612 67.8479 15.3341 68.0607 15.4736C68.106 15.5021 68.1584 15.5172 68.2119 15.5172C68.2655 15.5172 68.3179 15.5021 68.3632 15.4736C68.4052 15.4433 68.4362 15.4 68.4513 15.3504C68.4664 15.3008 68.4649 15.2477 68.447 15.199C68.3971 15.0683 68.3719 14.9294 68.3725 14.7895C68.3779 14.6249 68.4158 14.463 68.4841 14.3131C68.5525 14.1632 68.6498 14.0284 68.7705 13.9163C68.8912 13.8042 69.0329 13.7172 69.1874 13.6602C69.342 13.6032 69.5063 13.5774 69.6708 13.5842C69.7405 13.5769 69.8106 13.5769 69.8803 13.5842H69.9221C70.2018 13.6337 70.4557 13.7784 70.6407 13.9939C70.8256 14.2094 70.9302 14.4823 70.9366 14.7663C70.939 14.8321 70.9672 14.8943 71.0151 14.9396C71.063 14.9849 71.1267 15.0095 71.1926 15.0082C71.2253 15.0095 71.258 15.0042 71.2887 14.9926C71.3194 14.9811 71.3475 14.9635 71.3714 14.941C71.3952 14.9185 71.4143 14.8914 71.4275 14.8614C71.4408 14.8314 71.4479 14.799 71.4485 14.7663C71.4423 14.4239 71.3328 14.0914 71.1343 13.8124C70.9359 13.5333 70.6577 13.3208 70.3363 13.2026C70.4539 13.0139 70.6178 12.8583 70.8125 12.7508C71.0071 12.6432 71.2261 12.5873 71.4485 12.5884C71.779 12.5796 72.0995 12.7019 72.3401 12.9286C72.5808 13.1552 72.7219 13.4679 72.7329 13.7983V16.8371C72.7115 16.8687 72.7 16.906 72.7 16.9441C72.7 16.9823 72.7115 17.0196 72.7329 17.0512V18.396H72.2489C72.0505 18.4011 71.8582 18.3277 71.7135 18.1918C71.5689 18.0559 71.4837 17.8684 71.4764 17.6701C71.4758 17.6373 71.4687 17.6049 71.4555 17.5749C71.4422 17.5449 71.4231 17.5179 71.3993 17.4953C71.3754 17.4728 71.3474 17.4553 71.3167 17.4437C71.286 17.4322 71.2533 17.4269 71.2205 17.4281C71.1546 17.4268 71.0909 17.4515 71.043 17.4967C70.9951 17.542 70.967 17.6043 70.9645 17.6701C70.9755 18.0005 71.1167 18.3131 71.3573 18.5398C71.5979 18.7665 71.9185 18.8888 72.2489 18.88H72.7608V21.0579H72.1791C72.1209 21.0617 72.0625 21.0537 72.0074 21.0346C71.9523 21.0155 71.9016 20.9855 71.8582 20.9465C71.8148 20.9075 71.7797 20.8602 71.7549 20.8074C71.7301 20.7546 71.7161 20.6974 71.7138 20.6391C71.7016 20.2251 71.5257 19.8329 71.2247 19.5485C70.9237 19.2641 70.5222 19.1107 70.1083 19.122H69.9221C69.8861 19.1117 69.8482 19.1099 69.8114 19.1168C69.7746 19.1236 69.7398 19.1389 69.7099 19.1615C69.68 19.184 69.6558 19.2132 69.6391 19.2468C69.6224 19.2803 69.6137 19.3172 69.6137 19.3547C69.6137 19.3921 69.6224 19.4291 69.6391 19.4626C69.6558 19.4961 69.68 19.5253 69.7099 19.5479C69.7398 19.5704 69.7746 19.5857 69.8114 19.5926C69.8482 19.5994 69.8861 19.5976 69.9221 19.5874H70.1083C70.248 19.583 70.3872 19.6063 70.5179 19.656C70.6486 19.7056 70.7682 19.7806 70.8698 19.8766C70.9714 19.9726 71.0531 20.0877 71.1101 20.2154C71.1671 20.343 71.1983 20.4807 71.2019 20.6205C71.2055 20.7427 71.2332 20.863 71.2833 20.9746C71.3334 21.0861 71.4051 21.1867 71.4941 21.2705C71.5831 21.3544 71.6878 21.4198 71.8022 21.4632C71.9165 21.5066 72.0383 21.527 72.1605 21.5232H72.7422V24.6691C72.746 24.8386 72.7154 25.0071 72.6522 25.1644C72.5889 25.3217 72.4944 25.4645 72.3743 25.5842C72.2542 25.7039 72.111 25.7979 71.9535 25.8606C71.7959 25.9232 71.6273 25.9532 71.4578 25.9488V25.9628ZM79.1548 21.6768C79.0959 21.6732 79.0394 21.6524 78.9922 21.617C78.9449 21.5817 78.9091 21.5333 78.889 21.4778C78.8689 21.4223 78.8655 21.3621 78.8792 21.3047C78.8929 21.2473 78.9231 21.1952 78.966 21.1547C79.009 21.1143 79.0628 21.0873 79.1209 21.077C79.1791 21.0668 79.2389 21.0738 79.2931 21.0971C79.3473 21.1204 79.3935 21.1591 79.426 21.2084C79.4585 21.2576 79.4758 21.3153 79.4759 21.3743C79.4747 21.4153 79.4655 21.4556 79.4487 21.493C79.4319 21.5303 79.4079 21.564 79.3781 21.5921C79.3482 21.6202 79.3132 21.6421 79.2749 21.6567C79.2366 21.6712 79.1958 21.6781 79.1548 21.6768Z" fill="#ED1C24"/>
</g>
<defs>
<clipPath id="clip0_383_139">
<rect width="165.495" height="80.7489" fill="white" transform="translate(0.504883)"/>
</clipPath>
</defs>
</svg>
